<svg xmlns="http://www.w3.org/2000/svg" viewBox="0 0 528 512"><path d="M496 0H32C18.848 0 0 18.848 0 32v448c0 13.152 18.848 32 32 32h464c13.152 0 32-18.848 32-32V32c0-13.152-18.848-32-32-32zm16 480c-.096 4.544-11.456 15.904-16 16H32c-4.544-.096-15.904-11.456-16-16V32c.096-4.544 11.456-15.904 16-16h464c4.544.096 15.904 11.456 16 16v448zM264 88c-17.648 0-32 14.352-32 32s14.352 32 32 32 32-14.352 32-32-14.352-32-32-32zm0 48c-8.816 0-16-7.184-16-16s7.184-16 16-16 16 7.184 16 16-7.184 16-16 16zm128 208c-17.648 0-32 14.352-32 32s14.352 32 32 32 32-14.352 32-32-14.352-32-32-32zm0 48c-8.816 0-16-7.184-16-16s7.184-16 16-16 16 7.184 16 16-7.184 16-16 16zM136 264c-17.648 0-32 14.352-32 32s14.352 32 32 32 32-14.352 32-32-14.352-32-32-32zm0 48c-8.816 0-16-7.184-16-16s7.184-16 16-16 16 7.184 16 16-7.184 16-16 16zm0-72c4.416 0 8-3.584 8-8V88c0-4.416-3.584-8-8-8s-8 3.584-8 8v144c0 4.416 3.584 8 8 8zm0 112c-4.416 0-8 3.584-8 8v48c0 4.416 3.584 8 8 8s8-3.584 8-8v-48c0-4.416-3.584-8-8-8zm128-176c-4.416 0-8 3.584-8 8v224c0 4.416 3.584 8 8 8s8-3.584 8-8V184c0-4.416-3.584-8-8-8zm128 144c4.416 0 8-3.584 8-8V88c0-4.416-3.584-8-8-8s-8 3.584-8 8v224c0 4.416 3.584 8 8 8z"/></svg>