<?xml version="1.0" encoding="utf-8"?>
<!-- Generator: Adobe Illustrator 16.0.0, SVG Export Plug-In . SVG Version: 6.00 Build 0)  -->
<!DOCTYPE svg PUBLIC "-//W3C//DTD SVG 1.1//EN" "http://www.w3.org/Graphics/SVG/1.1/DTD/svg11.dtd">
<svg version="1.1" xmlns="http://www.w3.org/2000/svg" xmlns:xlink="http://www.w3.org/1999/xlink" x="0px" y="0px" width="1000px"
	 height="1000px" viewBox="0 0 1000 1000" enable-background="new 0 0 1000 1000" xml:space="preserve">
<g id="Social">
	<path id="Dribbble_3_" d="M500.6,13.6c-268.9,0-486.8,217.9-486.8,486.7c0,268.8,217.9,486.5,486.8,486.5
		c268.8,0,486.6-217.8,486.7-486.5C987.2,231.5,769.4,13.6,500.6,13.6z M798.8,266c47.5,60.2,77.2,134.9,80.9,216.4
		c-55-11.7-106.8-17.4-155.3-17.4l0,0h-0.2c-39,0-75.6,3.6-110,9.7c-8.4-20.5-16.8-40.2-25.3-59.1C665.5,381.9,739.2,334,798.8,266z
		 M500.6,120.6c89.6,0,171.8,31.3,236.8,83.4c-49.7,59.6-115.5,102.7-186.3,133.3c-49.9-96.4-98.2-165.4-131.2-207.5
		C445.9,123.9,473,120.6,500.6,120.6z M332.9,160.1c26.3,31.2,79.1,99.6,135.4,206.6c-114.5,34.1-230,42.1-299.8,42.1
		c-1.9,0-4,0-6-0.1h-0.2c-11.6,0-21.9-0.1-30.1-0.4C159.4,299.4,234.1,209,332.9,160.1z M120.7,500.2c0-1.8,0.2-3.6,0.3-5.4
		c10.9,0.4,24.7,0.7,41.5,0.7h0.1c76.3-0.5,209.7-6.8,344.8-49.4c7.3,16.1,14.7,32.8,21.9,50.3c-90.2,30.1-161.2,78.2-213.9,126
		c-50.5,46-84.7,91.6-104.7,122.1C154.9,678.4,120.9,593.4,120.7,500.2z M500.6,879.9c-84.6,0-162.4-28-225.7-74.8
		c13.6-22.1,42.3-64.6,88.2-108.4c47.3-45.2,112.2-91.7,197.3-119.4c29,80.9,55.2,173.6,75,277.8C593.5,871,548.2,879.9,500.6,879.9
		z M715.5,812.6c-19.3-94.2-43.5-179.2-70.1-255.2c24.6-3.6,50.4-5.5,77.9-5.5h0.9h0.1h0c45.3,0,95,5.7,148.9,17.9
		C854.8,670.2,796.6,756.6,715.5,812.6z"/>
</g>
<g id="Media">
</g>
<g id="Ecommerce">
	<g id="Paypal">
	</g>
</g>
<g id="apparels">
	<g id="Calque_6">
	</g>
</g>
</svg>
