<?xml version="1.0" encoding="utf-8"?>
<!-- Generator: Adobe Illustrator 16.0.0, SVG Export Plug-In . SVG Version: 6.00 Build 0)  -->
<!DOCTYPE svg PUBLIC "-//W3C//DTD SVG 1.1//EN" "http://www.w3.org/Graphics/SVG/1.1/DTD/svg11.dtd">
<svg version="1.1" xmlns="http://www.w3.org/2000/svg" xmlns:xlink="http://www.w3.org/1999/xlink" x="0px" y="0px" width="1000px"
	 height="1000px" viewBox="0 0 1000 1000" enable-background="new 0 0 1000 1000" xml:space="preserve">
<g id="Social">
	<path id="GitHub" d="M500.6,19.9C230,19.9,10.9,239.2,10.9,509.6c0,216.4,140.3,399.9,334.8,464.6c24.5,4.6,33.5-10.5,33.5-23.6
		c0-11.6-0.4-42.4-0.6-83.2c-136.3,29.6-165-65.7-165-65.7c-22.3-56.6-54.5-71.6-54.5-71.6c-44.4-30.4,3.4-29.7,3.4-29.7
		c49.2,3.4,75,50.4,75,50.4c43.7,74.9,114.6,53.3,142.6,40.7c4.4-31.6,17-53.2,31-65.5c-108.8-12.2-223.1-54.4-223.1-242
		c0-53.4,19-97.1,50.4-131.4c-5.5-12.4-22-62.1,4.3-129.6c0,0,41-13.2,134.7,50.2c39.2-10.9,80.8-16.3,122.4-16.5
		c41.6,0.2,83.2,5.6,122.4,16.5c93-63.4,134-50.2,134-50.2c26.3,67.5,9.8,117.2,4.9,129.6c31.2,34.3,50.2,78,50.2,131.4
		c0,188.1-114.5,229.5-223.4,241.6c17.1,14.7,33.1,44.7,33.1,90.6c0,65.5-0.6,118.1-0.6,134c0,12.9,8.6,28.2,33.7,23.3
		c195.9-64.2,336.1-247.8,336.1-463.9C990.2,239.2,771,19.9,500.6,19.9"/>
</g>
<g id="Media">
</g>
<g id="Ecommerce">
	<g id="Paypal">
	</g>
</g>
<g id="apparels">
	<g id="Calque_6">
	</g>
</g>
</svg>
