<?xml version="1.0" encoding="utf-8"?>
<!-- Generator: Adobe Illustrator 16.0.0, SVG Export Plug-In . SVG Version: 6.00 Build 0)  -->
<!DOCTYPE svg PUBLIC "-//W3C//DTD SVG 1.1//EN" "http://www.w3.org/Graphics/SVG/1.1/DTD/svg11.dtd">
<svg version="1.1" xmlns="http://www.w3.org/2000/svg" xmlns:xlink="http://www.w3.org/1999/xlink" x="0px" y="0px" width="1000px"
	 height="1000px" viewBox="0 0 1000 1000" enable-background="new 0 0 1000 1000" xml:space="preserve">
<g id="Social">
	<path id="Google_x2B_" fill="#1D1D1B" d="M808.2,253.6H711v155.1H555.8v97.2H711v155.1h97.2V505.9h155.1v-97.2H808.2V253.6z
		 M403.8,345.7c-14.5,36.5-36.2,58.9-65.1,67.2c-4.1,1.4-10.3,2.1-18.6,2.1c-26.2,0-50.7-11.4-73.4-34.1
		c-22.8-22.7-39-52.1-48.6-87.9c-9.7-38.6-8.6-75.1,3.1-109.6c11.7-34.5,31.4-55.8,58.9-64.1c5.5-1.4,12.4-2.1,20.7-2.1
		c63.4,0,105.5,37.2,126.1,111.7C419.3,270.2,418.3,309.1,403.8,345.7 M430.7,836.8c-28.3,24.8-66.2,38.6-113.7,41.4
		c-47.6,2.8-88.3-5.5-122-24.8c-33.8-19.3-52.1-46.9-54.8-82.7c-2.8-35.8,11.7-68.2,43.4-97.2c34.5-30.3,73.8-46.2,117.9-47.6H318
		c44.1,0,79.6,11,106.5,33.1c26.9,22.1,41.7,51,44.5,86.9C471.7,781.7,459,812,430.7,836.8 M162.9,443.9c31.7,20.7,69.6,31,113.8,31
		h14.5l-2.1,14.5c0,9.7,2.7,23.1,8.3,40.3c5.5,17.2,13.8,33.5,24.8,48.6h-2.1c-23.5,0-47.9,2.1-73.4,6.2
		c-25.5,4.1-55.9,11.7-91,22.7c-35.2,11-63.8,30.7-85.8,58.9c-22.1,28.3-33.1,63.4-33.1,105.5c0,42,10,77.2,30,105.5
		c20,28.3,45.5,47.9,76.5,58.9c31,11,56.9,18.3,77.6,21.7c20.7,3.4,39.3,5.2,55.8,5.2c1.4,0,2.7-0.7,4.1-2.1l4.1,2.1h4.1
		c56.5,0,108.2-11.7,155.1-35.2c80-37.2,120-104.1,120-200.6c0-60.7-35.9-122-107.5-184.1c-34.5-31.7-51.7-53.4-51.7-65.2
		c0-11.7,13.1-30.7,39.3-56.9c46.9-38.6,70.3-93.1,70.3-163.4c0-41.4-4.8-74.5-14.5-99.3c-9.7-24.8-28.3-44.1-55.8-57.9
		c6.9-4.1,20-6.2,39.3-6.2c53.8-9.6,80.7-22.1,80.7-37.2V53H326.3c-5.5,0-14.5,0.7-26.9,2.1c-12.4,1.4-31.7,6.6-57.9,15.5
		c-26.2,9-50,20.7-71.3,35.2c-21.4,14.5-40.7,36.9-57.9,67.2C95,203.3,86.4,238.5,86.4,278.4C86.4,358.4,111.9,413.6,162.9,443.9"/>
</g>
<g id="Media">
</g>
<g id="Ecommerce">
	<g id="Paypal">
	</g>
</g>
<g id="apparels">
	<g id="Calque_6">
	</g>
</g>
</svg>
