<?xml version="1.0" encoding="utf-8"?>
<!-- Generator: Adobe Illustrator 16.0.0, SVG Export Plug-In . SVG Version: 6.00 Build 0)  -->
<!DOCTYPE svg PUBLIC "-//W3C//DTD SVG 1.1//EN" "http://www.w3.org/Graphics/SVG/1.1/DTD/svg11.dtd">
<svg version="1.1" xmlns="http://www.w3.org/2000/svg" xmlns:xlink="http://www.w3.org/1999/xlink" x="0px" y="0px" width="1000px"
	 height="1000px" viewBox="0 0 1000 1000" enable-background="new 0 0 1000 1000" xml:space="preserve">
<g id="Social">
	<path id="Github__x28_alt_x29__3_" d="M718.8,166.1c12.4,27.9,20.3,74.3,8.5,108.2c48.5,41.5,65.3,142.4,41.8,224.8
		c69.3,5.3,151.7-2.5,205,18.7c-49.8-6.3-117.8-18.9-182-14.5c-12.2,0.9-30.2-0.5-29.3,16.7c74.3,5.8,148.2,12.3,209.2,31.3
		c-60.5-9.9-134-25-209.2-27.2c-31.1,61.3-93.6,91.5-179.9,97.9c9.3,20.3,27.1,27.8,31.4,60.3c6.4,48.6-10.2,119.7,6.1,151.9
		c7.9,15.6,20.7,15.9,29.3,29.2c-21.2,25-73.5-2.9-79.6-29.2c-10.2-45.1,15.6-115-12.5-145.7c2,49.3-11.6,118.3,2.1,162.3
		c5.4,17.4,21,24,16.7,39.6c-98.3,10-57.2-127.2-73.3-208.2c-14.8,1.1-8.4,22.3-8.4,31.3c-0.4,79.1,16.2,187.5-69,176.9
		c-2.5-16.6,11.4-22.3,16.7-37.3c15.7-44.5-2.8-110.8,4.3-164.4c-32.5,24.5,3.4,110-16.7,154.1c-11.6,25.2-49.1,36.2-77.5,24.9
		c3.7-18.9,23.2-15.7,31.4-33.4c11.5-24.3,0.1-59.6,4.2-95.6c-60.3,12-107-1.8-129.8-39.6c-10.2-17-12.8-37-25.1-52
		c-12.3-15.1-32-17.2-37.7-37.5c74.5-17.9,77.5,76.9,144.5,79.1c20.5,0.9,31.2-5.8,50.2-10.4c5.3-23.9,16.7-41.7,33.4-54.1
		c-83.4-11.4-152.2-37.2-184.2-99.9c-75.8,3.8-145.1,13.9-209.3,29.2c58.2-21.2,130.2-28.8,207.3-31.3
		c-4.6-27.3-44.4-19.7-69.1-18.7c-45.9,2-103.8,7.7-140.3,14.5c53-18.9,127.2-16.5,198.9-16.6c-21.9-68.7-14.3-177.9,33.5-218.5
		c-13.6-34.2-9.4-90.1,8.4-116.6c53.4,2.4,85.7,25.6,119.2,47.9c41.6-11.9,85.4-17.7,142.4-14.5c24,1.3,48.9,12.1,66.9,10.4
		c17.7-1.7,37.2-21.5,54.4-29.1C674.2,170.7,693.2,167,718.8,166.1z"/>
</g>
<g id="Media">
</g>
<g id="Ecommerce">
	<g id="Paypal">
	</g>
</g>
<g id="apparels">
	<g id="Calque_6">
	</g>
</g>
</svg>
