<?xml version="1.0" encoding="utf-8"?>
<!-- Generator: Adobe Illustrator 16.0.0, SVG Export Plug-In . SVG Version: 6.00 Build 0)  -->
<!DOCTYPE svg PUBLIC "-//W3C//DTD SVG 1.1//EN" "http://www.w3.org/Graphics/SVG/1.1/DTD/svg11.dtd">
<svg version="1.1" xmlns="http://www.w3.org/2000/svg" xmlns:xlink="http://www.w3.org/1999/xlink" x="0px" y="0px" width="1000px"
	 height="1000px" viewBox="0 0 1000 1000" enable-background="new 0 0 1000 1000" xml:space="preserve">
<g id="Social">
	<g>
		<path d="M501.1,32.4c-258.6,0-468.4,209.8-468.4,468.5c0,191.6,115.4,356.6,280.4,429c-1.3-32.6-0.3-71.9,8.2-107.6
			c9-37.9,60.3-255.1,60.3-255.1s-14.9-30-14.9-74.2c0-69.3,40.1-121.3,90.4-121.3c42.5,0,63.2,32,63.2,70.4
			c0,42.8-27.4,107-41.4,166.3c-11.7,49.6,24.9,90.3,73.8,90.3c88.7,0,148.5-114,148.5-249.1c0-102.6-69.1-179.6-194.9-179.6
			c-142.1,0-230.5,105.9-230.5,224.3c0,40.8,12,69.6,30.9,91.8c8.6,10.4,9.8,14.4,6.7,26.2c-2.3,8.5-7.4,29.4-9.5,37.5
			c-3.1,11.9-12.7,16.1-23.4,11.8c-65.5-26.7-95.9-98.5-95.9-179c0-133.1,112.1-292.6,334.7-292.6c178.7,0,296.5,129.4,296.5,268.3
			c0,183.7-102.2,321-252.6,321c-50.5,0-98.1-27.4-114.6-58.4c0,0-27.2,107.8-32.9,128.8c-9.9,36.1-29.4,72.2-47.1,100.3
			c42.2,12.4,86.6,19.2,132.8,19.2c258.7,0,468.4-209.8,468.4-468.4C969.5,242.2,759.8,32.4,501.1,32.4z"/>
	</g>
</g>
<g id="Media">
</g>
<g id="Ecommerce">
	<g id="Paypal">
	</g>
</g>
<g id="apparels">
	<g id="Calque_6">
	</g>
</g>
</svg>
