<?xml version="1.0" encoding="utf-8"?>
<!-- Generator: Adobe Illustrator 16.0.0, SVG Export Plug-In . SVG Version: 6.00 Build 0)  -->
<!DOCTYPE svg PUBLIC "-//W3C//DTD SVG 1.1//EN" "http://www.w3.org/Graphics/SVG/1.1/DTD/svg11.dtd">
<svg version="1.1" xmlns="http://www.w3.org/2000/svg" xmlns:xlink="http://www.w3.org/1999/xlink" x="0px" y="0px" width="1000px"
	 height="1000px" viewBox="0 0 1000 1000" enable-background="new 0 0 1000 1000" xml:space="preserve">
<g id="Social">
	<path id="SeenThis" d="M31,26v940h952V26H31z M424.8,572.3c-16.1-8.1-24.2-28.3-14.1-42.4c74.7-34.3,153.4-90.8,153.4-173.6
		c0-76.7-62.6-111-100.9-113c-28.3-2-54.5-18.2-54.5-56.5c0-30.3,18.2-82.8,96.9-82.8c82.8,0,155.4,88.8,155.4,193.8
		C661,437,552,533.9,424.8,572.3z M702,572.3c-16.1-8.1-24.2-28.3-14.1-42.4c74.7-34.3,153.4-90.8,153.4-173.6
		c0-76.7-62.6-111-100.9-113c-28.3-2-54.5-18.2-54.5-56.5c0-30.3,18.2-82.8,96.9-82.8c82.8,0,155.4,88.8,155.4,193.8
		C938.1,437,829.1,533.9,702,572.3z"/>
</g>
<g id="Media">
</g>
<g id="Ecommerce">
	<g id="Paypal">
	</g>
</g>
<g id="apparels">
	<g id="Calque_6">
	</g>
</g>
</svg>
