<?xml version="1.0" encoding="utf-8"?>
<!-- Generator: Adobe Illustrator 16.0.0, SVG Export Plug-In . SVG Version: 6.00 Build 0)  -->
<!DOCTYPE svg PUBLIC "-//W3C//DTD SVG 1.1//EN" "http://www.w3.org/Graphics/SVG/1.1/DTD/svg11.dtd">
<svg version="1.1" xmlns="http://www.w3.org/2000/svg" xmlns:xlink="http://www.w3.org/1999/xlink" x="0px" y="0px" width="1000px"
	 height="1000px" viewBox="0 0 1000 1000" enable-background="new 0 0 1000 1000" xml:space="preserve">
<g id="Social">
	<path id="Twitter" fill="#1D1D1B" d="M873.1,229.9c43.8-26.8,72.7-63.5,86.8-110.1c-42.4,22.6-84.7,38.1-127.1,46.6
		c-38.1-40.9-85.7-61.4-142.9-61.4c-57.2,0-105.2,19.4-144,58.2c-38.8,38.8-58.2,85.8-58.2,140.8c0,16.9,2.1,31.8,6.4,44.5
		C327.5,342.9,189.9,273.7,81.2,141c-18.4,32.5-27.5,65.6-27.5,99.5c0,70.6,29.6,126.3,88.9,167.3c-33.9-2.8-63.5-11.3-88.9-25.4
		v2.1c0,48,14.8,90.4,44.5,127.1c29.6,36.7,67.8,60,114.3,69.9c-16.9,4.2-34.2,6.3-51.9,6.3c-17.7,0-30-1.4-37.1-4.2
		c12.7,41,36,74.1,69.9,99.5c33.9,25.4,72.7,38.8,116.5,40.2c-72,56.5-154.6,84.7-247.7,84.7c-22.6,0-38.8-0.7-48.7-2.1
		c91.8,59.3,194.1,88.9,307,88.9c115.7,0,218.1-29.3,307-87.9c88.9-58.6,154.6-130.2,196.9-214.9c42.4-84.7,63.5-172.9,63.5-264.7
		v-25.4c40.9-31.1,74.1-65.6,99.5-103.8C950.7,213.7,912.6,224.3,873.1,229.9"/>
</g>
<g id="Media">
</g>
<g id="Ecommerce">
	<g id="Paypal">
	</g>
</g>
<g id="apparels">
	<g id="Calque_6">
	</g>
</g>
</svg>
