<?xml version="1.0" encoding="utf-8"?>
<!-- Generator: Adobe Illustrator 16.0.0, SVG Export Plug-In . SVG Version: 6.00 Build 0)  -->
<!DOCTYPE svg PUBLIC "-//W3C//DTD SVG 1.1//EN" "http://www.w3.org/Graphics/SVG/1.1/DTD/svg11.dtd">
<svg version="1.1" xmlns="http://www.w3.org/2000/svg" xmlns:xlink="http://www.w3.org/1999/xlink" x="0px" y="0px" width="1000px"
	 height="1000px" viewBox="0 0 1000 1000" enable-background="new 0 0 1000 1000" xml:space="preserve">
<g id="Social">
	<path id="Viadeo" d="M470.8,7c81.9,137.7,126.5,261.3,136.5,290.7v-1.2C587.1,84.2,470.6,7,470.6,7H470.8z M880.3,29.3
		c-41.6,88.6-118.9,105-118.9,105c-77.1,19.6-104.1,49.3-104.1,49.3C580.3,261.2,641,355.3,641,355.3
		c166.6-37.9,227.4-174.8,227.4-174.8c-7.4,91.9-205.7,200.6-205.7,200.6c65.6,64.2,128.3,56.5,169.7,31.8
		c54.8-32.6,81.2-104.1,81.2-104.1C966.7,150,880.3,29.3,880.3,29.3L880.3,29.3z M429.9,909.6h1.2c47.5,0,91.1-11.5,130.9-34.5
		c39.7-23,71.2-55.6,94.6-97.9c23.3-42.2,35-87.8,35-136.7c0-39.6-6.8-76.2-20.9-109.6c23.4-4.9,51.7-14.5,81.3-32.8
		c17.9,43.2,27.1,90.1,27.1,140.7c0,94.2-32,176.7-97.3,247.6c-65.3,70.3-148.5,106-250.1,106c-102.2,0-185.7-35.3-250.5-105.9
		c-64.7-70.6-96.7-153.2-96.7-247.6c0-93.7,30.7-174.9,92-243.7c67.1-75.8,152.3-113.7,255.1-113.7c43.4,0,83.5,6.8,120.5,20.2
		c-12,23.5-22.9,52.3-25.9,83.3c-29.4-12.3-61-18.5-94.8-18.5c-71.3,0-132.5,26.8-183.7,80.2C196.6,500.3,171,565,171,640.7
		c0,49.3,11.7,94.8,35.1,136.7c23.3,42.5,54.8,75.1,94.5,97.9c26.5,15.4,54.5,25.9,84.2,30.8c254.8-98.5,224.8-581.3,222.9-607.8
		l2.2,6.8c149.6,399.7-176.6,605.4-176.6,605.4h-3.1L429.9,909.6z"/>
</g>
<g id="Media">
</g>
<g id="Ecommerce">
	<g id="Paypal">
	</g>
</g>
<g id="apparels">
	<g id="Calque_6">
	</g>
</g>
</svg>
