<?xml version="1.0" encoding="utf-8"?>
<!-- Generator: Adobe Illustrator 16.0.0, SVG Export Plug-In . SVG Version: 6.00 Build 0)  -->
<!DOCTYPE svg PUBLIC "-//W3C//DTD SVG 1.1//EN" "http://www.w3.org/Graphics/SVG/1.1/DTD/svg11.dtd">
<svg version="1.1" xmlns="http://www.w3.org/2000/svg" xmlns:xlink="http://www.w3.org/1999/xlink" x="0px" y="0px" width="1000px"
	 height="1000px" viewBox="0 0 1000 1000" enable-background="new 0 0 1000 1000" xml:space="preserve">
<g id="Social">
	<path id="YouTube_2_" d="M785.2,728.7h-54.2l0.3-31.4c0-14,11.3-25.4,25.6-25.4h3.5c13.9,0,25.6,11.4,25.6,25.4L785.2,728.7z
		 M582.3,661.3c-13.7,0-25,9.2-25,20.5v152.8c0,11.3,11.2,20.5,25,20.5c13.7,0,25-9.2,25-20.5V681.8
		C607.2,670.5,596.1,661.3,582.3,661.3z M911.7,575.8v290.6c0,69.8-60.4,126.8-134.2,126.8H224.8c-73.9,0-134.2-57-134.2-126.8
		V575.8c0-69.7,60.4-126.8,134.2-126.8h552.5C851.3,449,911.7,506.1,911.7,575.8z M261.7,898V591.8l68.6,0v-45.3l-182.6-0.2v44.6
		l57.1,0.1v307H261.7z M467.1,637.5H410V801c0,23.6,1.3,35.5-0.1,39.7c-4.7,12.7-25.6,26.1-33.7,1.4c-1.4-4.4-0.2-17.4-0.2-39.9
		l-0.2-164.6H319l0.2,162c0,24.9-0.7,43.4,0.2,51.8c1.3,14.9,1,32.2,14.7,42.1c25.7,18.5,74.9-2.8,87.2-29.2l-0.1,33.8l45.8,0V637.5
		z M649.8,824.6l-0.2-136.1c-0.1-51.9-38.8-82.9-91.6-41l0.3-101.2l-57,0L501,895.7l46.8-0.7l4.3-21.7
		C612.1,928.3,649.9,890.6,649.8,824.6z M828.4,806.6l-42.8,0.2c-0.1,1.7-0.1,3.7-0.2,5.8v23.9c0,12.7-10.6,23.2-23.4,23.2h-8.5
		c-12.9,0-23.4-10.4-23.4-23.2v-2.7v-26.3v-33.8h97.9v-36.9c0-26.9-0.7-53.9-2.9-69.3c-7-48.8-75.5-56.5-110-31.5
		c-10.9,7.8-19.1,18.2-23.8,32.3c-5,14-7.2,33.2-7.2,57.5v81.1C684.2,941.7,848,922.6,828.4,806.6z M608.8,366.2
		c3,7.2,7.4,13,13.7,17.3c6,4.3,13.9,6.5,23.5,6.5c8.2,0,15.3-2.2,21.8-6.8c6.3-4.5,11.6-11.4,15.9-20.5l-1.1,22.4h63.6V114.3h-50.1
		V325c0,11.4-9.4,20.8-20.9,20.8c-11.5,0-20.8-9.3-20.8-20.8V114.3H602v182.5c0,23.3,0.5,38.8,1.1,46.6
		C604.1,351.4,605.8,358.9,608.8,366.2z M415.9,213.3c0-26,2.2-46.2,6.4-60.8c4.4-14.6,12.1-26.3,23.5-35.2
		c11.2-8.9,25.7-13.3,43.2-13.3c14.8,0,27.4,2.9,37.9,8.6c10.6,5.7,18.8,13.1,24.4,22.2c5.8,9.2,9.6,18.5,11.7,28.2
		c2.2,9.8,3.1,24.4,3.1,44.3v68.5c0,25.1-1,43.6-3,55.3c-1.9,11.8-6.2,22.6-12.6,32.9c-6.3,10.1-14.6,17.7-24.5,22.5
		c-10,4.9-21.5,7.2-34.5,7.2c-14.5,0-26.7-2-36.8-6.2c-10.1-4.1-17.8-10.4-23.5-18.7c-5.6-8.3-9.6-18.5-12-30.4
		c-2.4-11.8-3.5-29.6-3.5-53.4V213.3L415.9,213.3z M465.7,320.8c0,15.3,11.4,27.8,25.3,27.8c13.9,0,25.3-12.5,25.3-27.8V176.7
		c0-15.3-11.2-27.8-25.3-27.8c-13.8,0-25.3,12.5-25.3,27.8V320.8z M289.6,393.6h60.1l0.1-207.6L420.6,8.1h-65.7l-37.8,132.1
		L278.9,7.8H214l75.5,178.3L289.6,393.6z"/>
</g>
<g id="Media">
</g>
<g id="Ecommerce">
	<g id="Paypal">
	</g>
</g>
<g id="apparels">
	<g id="Calque_6">
	</g>
</g>
</svg>
